<mxfile host="Electron" agent="Mozilla/5.0 (X11; Linux x86_64) AppleWebKit/537.36 (KHTML, like Gecko) draw.io/24.7.8 Chrome/128.0.6613.36 Electron/32.0.1 Safari/537.36" version="24.7.8">
  <diagram name="Page-1" id="_vO9wSQposq_kSihdGZG">
    <mxGraphModel dx="867" dy="519" grid="0" gridSize="10" guides="1" tooltips="1" connect="1" arrows="1" fold="1" page="1" pageScale="1" pageWidth="850" pageHeight="1100" math="0" shadow="0">
      <root>
        <mxCell id="0" />
        <mxCell id="1" parent="0" />
        <mxCell id="cLsxnMqxMusMjQzlPtr2-26" value="" style="endArrow=none;dashed=1;html=1;dashPattern=1 4;strokeWidth=1;rounded=0;entryX=0;entryY=0;entryDx=0;entryDy=0;" parent="1" edge="1">
          <mxGeometry width="50" height="50" relative="1" as="geometry">
            <mxPoint x="259.2" y="591" as="sourcePoint" />
            <mxPoint x="260" y="240" as="targetPoint" />
          </mxGeometry>
        </mxCell>
        <mxCell id="cLsxnMqxMusMjQzlPtr2-28" value="" style="endArrow=none;dashed=1;html=1;dashPattern=1 4;strokeWidth=1;rounded=0;entryX=0;entryY=0;entryDx=0;entryDy=0;" parent="1" edge="1">
          <mxGeometry width="50" height="50" relative="1" as="geometry">
            <mxPoint x="379.2" y="591" as="sourcePoint" />
            <mxPoint x="380" y="240" as="targetPoint" />
          </mxGeometry>
        </mxCell>
        <mxCell id="cLsxnMqxMusMjQzlPtr2-29" value="" style="endArrow=none;dashed=1;html=1;dashPattern=1 4;strokeWidth=1;rounded=0;entryX=0;entryY=0;entryDx=0;entryDy=0;" parent="1" edge="1">
          <mxGeometry width="50" height="50" relative="1" as="geometry">
            <mxPoint x="499.2" y="591" as="sourcePoint" />
            <mxPoint x="500" y="240" as="targetPoint" />
          </mxGeometry>
        </mxCell>
        <mxCell id="cLsxnMqxMusMjQzlPtr2-30" value="" style="endArrow=none;dashed=1;html=1;dashPattern=1 4;strokeWidth=1;rounded=0;entryX=0;entryY=0;entryDx=0;entryDy=0;" parent="1" edge="1">
          <mxGeometry width="50" height="50" relative="1" as="geometry">
            <mxPoint x="619.2" y="591" as="sourcePoint" />
            <mxPoint x="620" y="240" as="targetPoint" />
          </mxGeometry>
        </mxCell>
        <mxCell id="JRg8W4KzXcbjawJd5654-1" value="&lt;font&gt;Proper requirements&lt;br&gt;and&lt;br&gt;Virtual environments&lt;/font&gt;" style="rounded=0;whiteSpace=wrap;html=1;fontFamily=newcomputermodern;strokeColor=none;" parent="1" vertex="1">
          <mxGeometry x="140" y="240" width="120" height="60" as="geometry" />
        </mxCell>
        <mxCell id="JRg8W4KzXcbjawJd5654-3" value="Statically linked binaries" style="rounded=0;whiteSpace=wrap;html=1;fontFamily=newcomputermodern;strokeColor=none;" parent="1" vertex="1">
          <mxGeometry x="260" y="240" width="120" height="60" as="geometry" />
        </mxCell>
        <mxCell id="JRg8W4KzXcbjawJd5654-4" value="containerization" style="rounded=0;whiteSpace=wrap;html=1;fontFamily=newcomputermodern;strokeColor=none;" parent="1" vertex="1">
          <mxGeometry x="380" y="240" width="120" height="60" as="geometry" />
        </mxCell>
        <mxCell id="JRg8W4KzXcbjawJd5654-5" value="Virtual&lt;br&gt;machines" style="rounded=0;whiteSpace=wrap;html=1;fontFamily=newcomputermodern;strokeColor=none;" parent="1" vertex="1">
          <mxGeometry x="500" y="240" width="120" height="60" as="geometry" />
        </mxCell>
        <mxCell id="JRg8W4KzXcbjawJd5654-6" value="VMs with&amp;nbsp;&lt;br&gt;hardware emulation" style="rounded=0;whiteSpace=wrap;html=1;fontFamily=newcomputermodern;strokeColor=none;" parent="1" vertex="1">
          <mxGeometry x="620" y="240" width="120" height="60" as="geometry" />
        </mxCell>
        <mxCell id="cLsxnMqxMusMjQzlPtr2-2" value="" style="rounded=0;whiteSpace=wrap;html=1;fillColor=#CCCCCC;strokeColor=#000000;" parent="1" vertex="1">
          <mxGeometry x="140" y="360" width="120" height="10" as="geometry" />
        </mxCell>
        <mxCell id="cLsxnMqxMusMjQzlPtr2-3" value="" style="rounded=0;whiteSpace=wrap;html=1;fillColor=#CCCCCC;strokeColor=#000000;" parent="1" vertex="1">
          <mxGeometry x="260" y="350" width="120" height="20" as="geometry" />
        </mxCell>
        <mxCell id="cLsxnMqxMusMjQzlPtr2-4" value="" style="rounded=0;whiteSpace=wrap;html=1;fillColor=#CCCCCC;strokeColor=#000000;" parent="1" vertex="1">
          <mxGeometry x="380" y="340" width="120" height="30" as="geometry" />
        </mxCell>
        <mxCell id="cLsxnMqxMusMjQzlPtr2-5" value="" style="rounded=0;whiteSpace=wrap;html=1;fillColor=#CCCCCC;strokeColor=#000000;" parent="1" vertex="1">
          <mxGeometry x="500" y="330" width="120" height="40" as="geometry" />
        </mxCell>
        <mxCell id="cLsxnMqxMusMjQzlPtr2-6" value="" style="rounded=0;whiteSpace=wrap;html=1;fillColor=#CCCCCC;strokeColor=#000000;" parent="1" vertex="1">
          <mxGeometry x="620" y="320" width="120" height="50" as="geometry" />
        </mxCell>
        <mxCell id="cLsxnMqxMusMjQzlPtr2-7" value="Portability" style="text;html=1;strokeColor=none;fillColor=none;align=center;verticalAlign=middle;whiteSpace=wrap;rounded=0;" parent="1" vertex="1">
          <mxGeometry x="60" y="330" width="60" height="30" as="geometry" />
        </mxCell>
        <mxCell id="cLsxnMqxMusMjQzlPtr2-9" value="Effort to distribute" style="text;html=1;strokeColor=none;fillColor=none;align=center;verticalAlign=middle;whiteSpace=wrap;rounded=0;" parent="1" vertex="1">
          <mxGeometry x="60" y="410" width="60" height="30" as="geometry" />
        </mxCell>
        <mxCell id="cLsxnMqxMusMjQzlPtr2-11" value="" style="rounded=0;whiteSpace=wrap;html=1;fillColor=#CCCCCC;strokeColor=#000000;" parent="1" vertex="1">
          <mxGeometry x="140" y="410" width="120" height="40" as="geometry" />
        </mxCell>
        <mxCell id="cLsxnMqxMusMjQzlPtr2-12" value="" style="rounded=0;whiteSpace=wrap;html=1;fillColor=#CCCCCC;strokeColor=#000000;" parent="1" vertex="1">
          <mxGeometry x="260" y="440" width="120" height="10" as="geometry" />
        </mxCell>
        <mxCell id="cLsxnMqxMusMjQzlPtr2-13" value="" style="rounded=0;whiteSpace=wrap;html=1;fillColor=#CCCCCC;strokeColor=#000000;" parent="1" vertex="1">
          <mxGeometry x="380" y="440" width="120" height="10" as="geometry" />
        </mxCell>
        <mxCell id="cLsxnMqxMusMjQzlPtr2-15" value="" style="rounded=0;whiteSpace=wrap;html=1;fillColor=#CCCCCC;strokeColor=#000000;" parent="1" vertex="1">
          <mxGeometry x="500" y="430" width="120" height="20" as="geometry" />
        </mxCell>
        <mxCell id="cLsxnMqxMusMjQzlPtr2-17" value="" style="rounded=0;whiteSpace=wrap;html=1;fillColor=#CCCCCC;strokeColor=#000000;" parent="1" vertex="1">
          <mxGeometry x="620" y="400" width="120" height="50" as="geometry" />
        </mxCell>
        <mxCell id="cLsxnMqxMusMjQzlPtr2-18" value="Resource overhead" style="text;html=1;strokeColor=none;fillColor=none;align=center;verticalAlign=middle;whiteSpace=wrap;rounded=0;" parent="1" vertex="1">
          <mxGeometry x="60" y="561" width="60" height="30" as="geometry" />
        </mxCell>
        <mxCell id="cLsxnMqxMusMjQzlPtr2-20" value="" style="endArrow=none;html=1;rounded=0;" parent="1" edge="1">
          <mxGeometry width="50" height="50" relative="1" as="geometry">
            <mxPoint x="140" y="580" as="sourcePoint" />
            <mxPoint x="260" y="580" as="targetPoint" />
          </mxGeometry>
        </mxCell>
        <mxCell id="cLsxnMqxMusMjQzlPtr2-22" value="" style="endArrow=none;html=1;rounded=0;" parent="1" edge="1">
          <mxGeometry width="50" height="50" relative="1" as="geometry">
            <mxPoint x="260" y="580" as="sourcePoint" />
            <mxPoint x="380" y="580" as="targetPoint" />
          </mxGeometry>
        </mxCell>
        <mxCell id="cLsxnMqxMusMjQzlPtr2-23" value="" style="rounded=0;whiteSpace=wrap;html=1;fillColor=#CCCCCC;strokeColor=#000000;" parent="1" vertex="1">
          <mxGeometry x="380" y="570" width="120" height="10" as="geometry" />
        </mxCell>
        <mxCell id="cLsxnMqxMusMjQzlPtr2-24" value="" style="rounded=0;whiteSpace=wrap;html=1;fillColor=#CCCCCC;strokeColor=#000000;" parent="1" vertex="1">
          <mxGeometry x="500" y="550" width="120" height="30" as="geometry" />
        </mxCell>
        <mxCell id="cLsxnMqxMusMjQzlPtr2-25" value="" style="rounded=0;whiteSpace=wrap;html=1;fillColor=#CCCCCC;strokeColor=#000000;" parent="1" vertex="1">
          <mxGeometry x="620" y="530" width="120" height="50" as="geometry" />
        </mxCell>
        <mxCell id="cLsxnMqxMusMjQzlPtr2-38" value="Effort to reproduce" style="text;html=1;strokeColor=none;fillColor=none;align=center;verticalAlign=middle;whiteSpace=wrap;rounded=0;" parent="1" vertex="1">
          <mxGeometry x="60" y="480" width="60" height="30" as="geometry" />
        </mxCell>
        <mxCell id="cLsxnMqxMusMjQzlPtr2-39" value="" style="rounded=0;whiteSpace=wrap;html=1;fillColor=#CCCCCC;strokeColor=#000000;" parent="1" vertex="1">
          <mxGeometry x="140" y="470" width="120" height="50" as="geometry" />
        </mxCell>
        <mxCell id="cLsxnMqxMusMjQzlPtr2-40" value="" style="rounded=0;whiteSpace=wrap;html=1;fillColor=#CCCCCC;strokeColor=#000000;" parent="1" vertex="1">
          <mxGeometry x="260" y="510" width="120" height="10" as="geometry" />
        </mxCell>
        <mxCell id="cLsxnMqxMusMjQzlPtr2-41" value="" style="rounded=0;whiteSpace=wrap;html=1;fillColor=#CCCCCC;strokeColor=#000000;" parent="1" vertex="1">
          <mxGeometry x="380" y="510" width="120" height="10" as="geometry" />
        </mxCell>
        <mxCell id="cLsxnMqxMusMjQzlPtr2-42" value="" style="rounded=0;whiteSpace=wrap;html=1;fillColor=#CCCCCC;strokeColor=#000000;" parent="1" vertex="1">
          <mxGeometry x="500" y="500" width="120" height="20" as="geometry" />
        </mxCell>
        <mxCell id="cLsxnMqxMusMjQzlPtr2-43" value="" style="rounded=0;whiteSpace=wrap;html=1;fillColor=#CCCCCC;strokeColor=#000000;" parent="1" vertex="1">
          <mxGeometry x="620" y="480" width="120" height="40" as="geometry" />
        </mxCell>
      </root>
    </mxGraphModel>
  </diagram>
</mxfile>
